# xmcd CD database file
#
# Track frame offsets:
#	150
#	21521
#	41268
#	59040
#	80056
#	94747
#	119826
#	138504
#	162113
#	181991
#
# Disc length: 2769 seconds
#
# Revision: 0
# Processed by: cddbd v1.5.2PL0 Copyright (c) Steve Scherf et al.
# Submitted via: CDex 1.51
#
DISCID=8d0acf0a
DTITLE=Beth Malone - The Lunch Shift
DYEAR=2008
DGENRE=Country
TTITLE0=Green River
TTITLE1=Daredevils and Circus Freaks
TTITLE2=GTO
TTITLE3=A Moment of Awkward Silence
TTITLE4=Up On Surrey Ridge
TTITLE5=She Always Thought Of Him
TTITLE6=Getting Outta Here
TTITLE7=Turn Around
TTITLE8=County Fair
TTITLE9=Veronica's Working the Lunch Shift
EXTD=YEAR: 2008
EXTT0=
EXTT1=
EXTT2=
EXTT3=
EXTT4=
EXTT5=
EXTT6=
EXTT7=
EXTT8=
EXTT9=
PLAYORDER=
